<?xml version="1.0" encoding="utf-8"?>
<!-- Generator: Adobe Illustrator 20.1.0, SVG Export Plug-In . SVG Version: 6.00 Build 0)  -->
<svg version="1.1" id="Слой_1" xmlns="http://www.w3.org/2000/svg" xmlns:xlink="http://www.w3.org/1999/xlink" x="0px" y="0px"
	 viewBox="0 0 563.3 144.9" style="enable-background:new 0 0 563.3 144.9;" xml:space="preserve">
<style type="text/css">
	.st0{fill:#000105;}
</style>
<g>
	<rect x="3.3" y="99" class="st0" width="556.5" height="3.3"/>
</g>
<g>
	<g>
		<path d="M233.2,1.4c7.2,17.5,14.2,34.6,21.4,52.1c0.3-0.8,0.6-1.2,0.7-1.7c4.9-15.8,9.8-31.5,14.7-47.3c0.4-1.4,1.2-1.9,2.8-1.8
			c1.8,0.1,3.6,0,5.7,0C271,27,263.6,51.1,256.2,75.2c-0.1,0-0.3,0-0.4,0c-7.5-18.3-15-36.6-22.6-55.3c-7.6,18.7-15.1,37-22.6,55.3
			c-0.1,0-0.2,0-0.4,0C202.9,51.1,195.4,27,188,2.8c2.7,0,5.2,0,7.9,0c5.3,16.8,10.5,33.6,15.9,50.9C219,36.1,226,19,233.2,1.4z"/>
	</g>
	<g>
		<path d="M548.8,55.9c1.7,1.5,3.4,3,5.1,4.5c-3.9,4.4-8.7,8-14.6,10.6c-22.2,9.5-47.9,0.2-55.3-20.2c-5-13.8-2.3-26.6,9.1-37.5
			c8.4-8,19.2-11.4,31.9-10.3c15.2,1.3,28.2,11,32.5,25c0.6,1.9,1,3.9,1.3,5.9c0.3,1.5,0.3,3,0.4,4.7c-23.5,0-46.8,0-70,0
			c-2.4,8.1,6.5,21.7,17.2,26.7C518.4,70.8,537.5,69.2,548.8,55.9z M551.3,32.5c-1.7-11.1-12.9-23.9-31.8-23.3
			c-17.7,0.5-28.5,13.9-29.6,23.3C510.4,32.5,530.8,32.5,551.3,32.5z"/>
	</g>
	<g>
		<path d="M154.1,56.1c1.8,1.5,3.5,2.8,5.3,4.3c-6.4,6.9-14.3,11.7-24.6,13.5c-13.5,2.3-25.3-0.4-35-8.6
			C91.9,58.8,88,50.7,87.2,41.4c-0.8-10.3,2.4-19.5,10.4-27.3c8.3-8.2,19.1-12.3,31.9-11.2c17.5,1.6,28,10.5,33.2,24.3
			c1.4,3.6,2,7.4,1.8,11.4c-23.4,0-46.7,0-70,0c-0.7,9,5.2,21.2,17.7,26.8C123.7,70.6,142.8,69.3,154.1,56.1z M156.7,32.5
			c-2-11.6-13.2-23.5-31-23.4c-17.4,0.1-28.9,12.7-30.5,23.4C115.6,32.5,136.1,32.5,156.7,32.5z"/>
	</g>
	<g>
		<path d="M56.1,58c0-18.3,0-36.7,0-55.1c2.5,0,4.8,0,7.3,0c0,24.1,0,48.2,0,72.6C45.9,56.8,28.6,38.4,11.3,20
			c-0.1,0-0.2,0.1-0.4,0.1c0,18.1,0,36.1,0,54.3c-2.6,0-4.9,0-7.4,0c0-24.2,0-48.3,0-72.9c17.6,19.1,34.9,37.9,52.2,56.6
			C55.8,58.1,56,58,56.1,58z"/>
	</g>
	<g>
		<path d="M428.4,43.9c7.9,0,15.7,0,23.6,0c-0.8,2.2-1.5,4.2-2.2,6.3c-7.1,0-14.2,0-21.5,0c0,8,0,16,0,24c-2.6,0-5,0-7.5,0
			c0-0.4-0.1-0.8-0.1-1.3c0-16.8,0-33.7,0-50.5c0-9.7,7.4-17.7,18.6-19.9c13.9-2.7,28.4,3.9,30.1,18c0.1,1.1,0.2,2.1,0.4,3.3
			c-2.6,0-5.1,0-7.4,0c-0.4-1.9-0.7-3.8-1.4-5.6c-2.4-6.5-9.1-10.2-16.4-9.9c-8.8,0.3-14.8,4.9-16.2,11.8c-0.2,0.8-0.2,1.7-0.2,2.5
			c0,6.7,0,13.4,0,20.1C428.3,43,428.4,43.4,428.4,43.9z"/>
	</g>
	<g>
		<path d="M396.9,74.3c-2.5,0-4.8,0-7.3,0c0-23.7,0-47.3,0-71.1c2.4,0,4.8,0,7.3,0C396.9,26.7,396.9,50.4,396.9,74.3z"/>
	</g>
	<g>
		<path class="st0" d="M320.7,74.3v-71h7.3v64.9h38.1v6.1H320.7z"/>
	</g>
</g>
<g>
	<path class="st0" d="M49.1,122.9v20.4h-3.2v-20.4H49.1z"/>
	<path class="st0" d="M77.9,125.1h-7.6v-2.2h18.4v2.2h-7.6v18.2h-3.2V125.1z"/>
	<path class="st0" d="M115.2,122.5c-0.8,2.5-2.4,5.8-3.5,7.2l-2.1,0.2c0.8-1.8,1.8-4.9,2.2-7.1L115.2,122.5z"/>
	<path class="st0" d="M136.5,140.1c1.4,0.7,3.5,1.3,5.8,1.3c3.3,0,5.2-1.4,5.2-3.5c0-1.9-1.3-3-4.7-4.1c-4.1-1.2-6.6-2.9-6.6-5.8
		c0-3.2,3.2-5.5,8-5.5c2.5,0,4.4,0.5,5.5,1l-0.9,2.1c-0.8-0.4-2.5-1-4.7-1c-3.4,0-4.7,1.7-4.7,3.1c0,1.9,1.5,2.8,4.9,3.9
		c4.2,1.3,6.3,3,6.3,6c0,3.1-2.8,5.9-8.7,5.9c-2.4,0-5-0.6-6.3-1.3L136.5,140.1z"/>
	<path class="st0" d="M203.7,143.3v-8.7l-7.9-11.7h3.6l3.5,5.6c1,1.5,1.7,2.8,2.5,4.2h0.1c0.7-1.3,1.5-2.7,2.5-4.2l3.6-5.6h3.6
		l-8.3,11.7v8.7H203.7z"/>
	<path class="st0" d="M256.4,132.9c0,7-5.2,10.7-11.5,10.7c-6.6,0-11.2-4.2-11.2-10.4c0-6.5,4.9-10.7,11.5-10.7
		C252,122.5,256.4,126.8,256.4,132.9z M237.1,133.2c0,4.4,2.9,8.3,7.9,8.3c5.1,0,8-3.8,8-8.5c0-4.1-2.6-8.3-7.9-8.3
		C239.8,124.7,237.1,128.7,237.1,133.2z"/>
	<path class="st0" d="M282.2,122.9v12.1c0,4.6,2.5,6.5,5.8,6.5c3.7,0,6-2,6-6.5v-12.1h3.2v11.9c0,6.3-4,8.8-9.4,8.8
		c-5.1,0-8.9-2.4-8.9-8.7v-12H282.2z"/>
	<path class="st0" d="M321.3,123.1c1.6-0.3,3.9-0.4,6.2-0.4c3.4,0,5.6,0.5,7.2,1.7c1.3,0.9,2,2.3,2,3.9c0,2.7-2.1,4.5-4.7,5.2v0.1
		c1.9,0.5,3.1,2,3.6,4.1c0.8,2.8,1.4,4.8,1.9,5.6h-3.3c-0.4-0.6-1-2.3-1.7-4.9c-0.7-2.8-2.1-3.9-5-4h-3v8.8h-3.2V123.1z
		 M324.5,132.4h3.3c3.4,0,5.6-1.5,5.6-3.9c0-2.6-2.3-3.8-5.7-3.8c-1.5,0-2.7,0.1-3.2,0.2V132.4z"/>
	<path class="st0" d="M385.8,122.9h3.2v18.2h10.6v2.2h-13.8V122.9z"/>
	<path class="st0" d="M424.9,122.9v20.4h-3.2v-20.4H424.9z"/>
	<path class="st0" d="M448.9,122.9h13.4v2.2h-10.2v6.8h9.4v2.2h-9.4v9.2h-3.2V122.9z"/>
	<path class="st0" d="M498.2,133.7h-9.7v7.4h10.8v2.2h-14v-20.4h13.4v2.2h-10.2v6.4h9.7V133.7z"/>
</g>
</svg>
